<svg width="110" height="90" viewBox="0 0 110 90" fill="none" xmlns="http://www.w3.org/2000/svg">
<g id="Bolinhas">
<circle id="Ellipse 2" cx="105" cy="25" r="5" transform="rotate(90 105 25)" fill="#EFEFEF"/>
<circle id="Ellipse 3" cx="105" cy="45" r="5" transform="rotate(90 105 45)" fill="#EFEFEF"/>
<circle id="Ellipse 4" cx="105" cy="65" r="5" transform="rotate(90 105 65)" fill="#EFEFEF"/>
<circle id="Ellipse 6" cx="85" cy="5.00001" r="5" transform="rotate(90 85 5.00001)" fill="#EFEFEF"/>
<circle id="Ellipse 7" cx="85" cy="25" r="5" transform="rotate(90 85 25)" fill="#EFEFEF"/>
<circle id="Ellipse 8" cx="85" cy="45" r="5" transform="rotate(90 85 45)" fill="#EFEFEF"/>
<circle id="Ellipse 9" cx="85" cy="65" r="5" transform="rotate(90 85 65)" fill="#EFEFEF"/>
<circle id="Ellipse 10" cx="85" cy="85" r="5" transform="rotate(90 85 85)" fill="#EFEFEF"/>
<circle id="Ellipse 11" cx="65" cy="5" r="5" transform="rotate(90 65 5)" fill="#EFEFEF"/>
<circle id="Ellipse 12" cx="65" cy="25" r="5" transform="rotate(90 65 25)" fill="#EFEFEF"/>
<circle id="Ellipse 13" cx="65" cy="45" r="5" transform="rotate(90 65 45)" fill="#EFEFEF"/>
<circle id="Ellipse 14" cx="65" cy="65" r="5" transform="rotate(90 65 65)" fill="#EFEFEF"/>
<circle id="Ellipse 15" cx="65" cy="85" r="5" transform="rotate(90 65 85)" fill="#EFEFEF"/>
<circle id="Ellipse 16" cx="45" cy="5" r="5" transform="rotate(90 45 5)" fill="#EFEFEF"/>
<circle id="Ellipse 17" cx="45" cy="25" r="5" transform="rotate(90 45 25)" fill="#EFEFEF"/>
<circle id="Ellipse 18" cx="45" cy="45" r="5" transform="rotate(90 45 45)" fill="#EFEFEF"/>
<circle id="Ellipse 19" cx="45" cy="65" r="5" transform="rotate(90 45 65)" fill="#EFEFEF"/>
<circle id="Ellipse 20" cx="45" cy="85" r="5" transform="rotate(90 45 85)" fill="#EFEFEF"/>
<circle id="Ellipse 21" cx="25" cy="5" r="5" transform="rotate(90 25 5)" fill="#EFEFEF"/>
<circle id="Ellipse 22" cx="25" cy="25" r="5" transform="rotate(90 25 25)" fill="#EFEFEF"/>
<circle id="Ellipse 23" cx="25" cy="45" r="5" transform="rotate(90 25 45)" fill="#EFEFEF"/>
<circle id="Ellipse 24" cx="25" cy="65" r="5" transform="rotate(90 25 65)" fill="#EFEFEF"/>
<circle id="Ellipse 25" cx="25" cy="85" r="5" transform="rotate(90 25 85)" fill="#EFEFEF"/>
<circle id="Ellipse 27" cx="5" cy="25" r="5" transform="rotate(90 5 25)" fill="#EFEFEF"/>
<circle id="Ellipse 28" cx="5" cy="45" r="5" transform="rotate(90 5 45)" fill="#EFEFEF"/>
<circle id="Ellipse 29" cx="5" cy="65" r="5" transform="rotate(90 5 65)" fill="#EFEFEF"/>
</g>
</svg>
